Wuthering Heights 2011 READNFO DVDSCR x264 AC3-DTRG

Format                           : Matroska
Format version                   : Version 2
File size                        : 1.37 GiB
Duration                         : 2h 3mn
Overall bit rate                 : 1 584 Kbps
Encoded date                     : UTC 2012-02-02 22:11:45
Writing library                  : libebml v1.2.0 + libmatroska v1.1.0

Video
ID                               : 1
Format                           : AVC
Format/Info                      : Advanced Video Codec
Format profile                   : High@L4.1
Format settings, CABAC           : Yes
Format settings, ReFrames        : 4 frames
Muxing mode                      : Header stripping
Codec ID                         : V_MPEG4/ISO/AVC
Duration                         : 2h 3mn
Bit rate                         : 1 455 Kbps
Width                            : 624 pixels
Height                           : 496 pixels
Display aspect ratio             : 5:4
Frame rate                       : 25.000 fps
Color space                      : YUV
Chroma subsampling               : 4:2:0
Bit depth                        : 8 bits
Scan type                        : Progressive
Bits/(Pixel*Frame)               : 0.188
Stream size                      : 1.23 GiB (90%)
Writing library                  : x264 core 116 r2074 2641b9e
Language                         : English
Default                          : Yes
Forced                           : No
Source                           : a good freind, thanks mate...

Audio
ID                               : 2
Format                           : AC-3
Format/Info                      : Audio Coding 3
Mode extension                   : CM (complete main)
Muxing mode                      : Header stripping
Codec ID                         : A_AC3
Duration                         : 2h 3mn
Bit rate mode                    : Constant
Bit rate                         : 128 Kbps
Channel(s)                       : 2 channels
Channel positions                : Front: L R
Sampling rate                    : 48.0 KHz
Bit depth                        : 16 bits
Compression mode                 : Lossy
Stream size                      : 113 MiB (8%)
Default                          : Yes
Forced                           : No
Source                           : a good freind, thanks mate...

iMDB: http://www.imdb.com/title/tt1181614/

Encoder: Kareemzos..

DTRG bringing the p2p world yet another release, Wuthering Heights 2011 DVDSCR..
straight forward encode tbh, sharpened, denoised, hsv levels etc etc and x264'd it...
thanks to a special friend for the source files..
yep there's a SCR message every now an then but nothing to worry about.......
check the sample before downloading because the screens cant tell you the real Q 
of the release, enjoy folks.....


Poster:

 
http://i.imgur.com/bi6Aw.jpg


Screens:

 
http://i.imgur.com/TKd2G.png

 
http://i.imgur.com/bDA4N.png

 
http://i.imgur.com/tQK9C.png


ENJOY!